<?xml version="1.0" encoding="UTF-8"?>
<svg width="42px" height="42px" viewBox="0 0 42 42" version="1.1" xmlns="http://www.w3.org/2000/svg" xmlns:xlink="http://www.w3.org/1999/xlink">
    <!-- Generator: Sketch 58 (84663) - https://sketch.com -->
    <title>instagram</title>
    <desc>Created with Sketch.</desc>
    <g id="Page-1" stroke="none" stroke-width="1" fill="none" fill-rule="evenodd" opacity="0.5">
        <g id="XLogistic" transform="translate(-459.000000, -3914.000000)">
            <g id="FOOTER" transform="translate(0.000000, 3704.000000)">
                <g id="social" transform="translate(369.000000, 211.000000)">
                    <g id="instagram" transform="translate(91.000000, 0.000000)">
                        <circle id="base" stroke="#6E8496" cx="20" cy="20" r="20"></circle>
                        <path d="M24.5145497,14.1583254 C23.9172848,14.1583254 23.4321094,14.642711 23.4321094,15.2416473 C23.4321094,15.8397654 23.9172848,16.3249693 24.5145497,16.3249693 C25.1126328,16.3249693 25.5978082,15.8397654 25.5978082,15.2416473 C25.5978082,14.642711 25.1126328,14.1583254 24.5145497,14.1583254 M19.9998818,22.9787263 C18.3586306,22.9787263 17.0225572,21.6425747 17.0225572,19.9995909 C17.0225572,18.3574253 18.3586306,17.0220919 19.9998818,17.0220919 C21.6419511,17.0220919 22.9780244,18.3574253 22.9780244,19.9995909 C22.9780244,21.6425747 21.6419511,22.9787263 19.9998818,22.9787263 M19.9998818,15.3455612 C17.4349155,15.3455612 15.3477611,17.4336561 15.3477611,19.9995909 C15.3477611,22.5663439 17.4349155,24.6544388 19.9998818,24.6544388 C22.5656662,24.6544388 24.6528206,22.5663439 24.6528206,19.9995909 C24.6528206,17.4336561 22.5656662,15.3455612 19.9998818,15.3455612 M27.3045131,22.5426156 C27.2963313,23.1030956 27.2742407,23.7012137 27.1686967,24.2674212 C26.8823368,25.8081276 26.0077119,26.7449884 24.4957318,27.132006 C23.8011045,27.3095595 23.0614779,27.3152871 22.2793064,27.3201964 L22.2711246,27.3201964 C21.8906751,27.322651 21.5004075,27.3234692 21.0782312,27.3234692 C20.0162452,27.3234692 18.934623,27.3161053 17.8873641,27.3079231 L17.1845551,27.3030138 C16.667471,27.2989227 16.0603881,27.2751943 15.4745776,27.1262785 C14.3291381,26.8349925 13.5502392,26.1935088 13.0920634,25.1650075 C12.8024309,24.5112505 12.7369772,23.7887631 12.7116139,23.1677349 C12.7058867,23.033547 12.6960686,22.906723 12.6854324,22.7839902 L12.6756143,22.6612573 L12.6756143,17.3992909 C12.6862506,17.3461066 12.6993413,17.2716487 12.7017958,17.1857357 C12.7197956,16.5696168 12.7451589,16.0165008 12.8777026,15.4879313 C13.171426,14.321151 13.8259629,13.5323878 14.8797672,13.0766398 C15.5203952,12.7992636 16.2289313,12.737079 16.8376506,12.7117142 C16.9718306,12.7059866 17.0994653,12.6953498 17.222191,12.6855312 L17.3440985,12.6757125 L22.6090293,12.6757125 C22.6523924,12.6847129 22.7072098,12.6928951 22.770209,12.6986227 C22.9485703,12.7141688 23.1252952,12.7248057 23.2954748,12.7346243 C23.6341976,12.7550798 23.9532844,12.7738988 24.2486441,12.8287195 C25.0226339,12.9743625 25.654262,13.2689213 26.1238922,13.7033956 C26.5951587,14.1411428 26.9330634,14.7482613 27.1277881,15.509205 C27.3020585,16.1907814 27.3086039,16.9181781 27.3159675,17.6864857 L27.3159675,17.7527615 C27.3306945,19.3621983 27.3274219,20.9740897 27.3045131,22.5426156 M28.9915818,17.7380335 L28.9907636,17.6717578 C28.9834001,16.8363562 28.9752184,15.9723169 28.7510395,15.0935497 C28.2020467,12.9457248 26.7514294,11.5932088 24.5570946,11.1824628 C24.1578271,11.1071867 23.770014,11.0842766 23.3944735,11.0621846 C23.2324757,11.0531842 23.0786595,11.0433656 22.9272978,11.0302741 C22.9191161,11.0286377 22.9117526,11.0270012 22.9035709,11.0253648 C22.8814803,11.0220919 22.8593896,11.0171826 22.8356627,11.0130915 L22.7636636,11 L17.2810993,11 L17.250827,11.0024547 C17.1951913,11.0065458 17.1387375,11.0106368 17.0839201,11.0155462 C16.9726488,11.0245466 16.8679229,11.033547 16.7697424,11.0376381 C16.0513882,11.067094 15.1121278,11.1505523 14.2145941,11.5383881 C12.6715235,12.2060548 11.6758093,13.3973817 11.253633,15.0788218 C11.0834534,15.7563071 11.0490903,16.4190645 11.028636,17.093277 C11.0229088,17.1186418 11.0179998,17.1431883 11.0130907,17.1677349 L11,17.2405564 L11,22.7242602 L11.0024545,22.7545343 C11.0065454,22.8109914 11.0114544,22.8666303 11.0163634,22.9222692 C11.0253633,23.0327288 11.033545,23.1366426 11.0376359,23.2356471 C11.06709,23.9695895 11.1546343,24.9285422 11.5620835,25.8457657 C12.2321656,27.3529251 13.410332,28.3306968 15.0622194,28.749625 C15.8263911,28.9443611 16.5905629,28.973817 17.1714644,28.9787263 L17.8750915,28.9836356 C18.924805,28.9909996 20.0096998,29 21.0782312,29 C21.5044984,29 21.8980386,28.9983636 22.2817609,28.9959089 L22.2899426,28.9959089 C23.1392041,28.9901814 24.0179199,28.9844538 24.9105445,28.7553525 C27.0582436,28.2055093 28.409044,26.7597164 28.815675,24.5742534 C28.9441279,23.8820401 28.9703094,23.1710078 28.9793092,22.5663439 C29.0013999,20.9847266 29.0063089,19.3605618 28.9915818,17.7380335" id="Instagram" fill="#6E8496"></path>
                    </g>
                </g>
            </g>
        </g>
    </g>
</svg>