<?xml version="1.0" encoding="UTF-8"?>
<svg width="40px" height="40px" viewBox="0 0 40 40" version="1.1" xmlns="http://www.w3.org/2000/svg" xmlns:xlink="http://www.w3.org/1999/xlink">
    <!-- Generator: Sketch 58 (84663) - https://sketch.com -->
    <title>linkedin</title>
    <desc>Created with Sketch.</desc>
    <g id="Page-1" stroke="none" stroke-width="1" fill="none" fill-rule="evenodd">
        <g id="XLogistic" transform="translate(-552.000000, -3985.000000)">
            <g id="FOOTER" transform="translate(0.000000, 3704.000000)">
                <g id="social" transform="translate(369.000000, 281.000000)">
                    <g id="linkedin" transform="translate(183.000000, 0.000000)">
                        <circle id="base" fill="#0075B8" cx="20" cy="20" r="20"></circle>
                        <path d="M13.3531279,16.4891792 L16.0818438,16.4891792 L16.0818438,25.9991036 L13.3531279,25.9991036 L13.3531279,16.4891792 Z M14.6479304,15.2996542 L14.628175,15.2996542 C13.6404045,15.2996542 13,14.5726726 13,13.6520681 C13,12.7126393 13.6593368,12 14.6668627,12 C15.6735654,12 16.2925682,12.7108465 16.3123236,13.6493789 C16.3123236,14.5699834 15.6735654,15.2996542 14.6479304,15.2996542 L14.6479304,15.2996542 Z M27,26 L23.905809,26 L23.905809,21.0778589 C23.905809,19.7897298 23.4218015,18.9112562 22.3574788,18.9112562 C21.5433913,18.9112562 21.0906632,19.5037777 20.8799389,20.0765783 C20.8009172,20.2809579 20.8132643,20.56691 20.8132643,20.8537585 L20.8132643,26 L17.7478833,26 C17.7478833,26 17.7873942,17.2815982 17.7478833,16.4891792 L20.8132643,16.4891792 L20.8132643,17.9816878 C20.9943556,17.3291074 21.9738946,16.3977462 23.5370414,16.3977462 C25.4763641,16.3977462 27,17.7665514 27,20.7112306 L27,26 L27,26 Z" id="Shape" fill="#FFFFFF"></path>
                    </g>
                </g>
            </g>
        </g>
    </g>
</svg>