<?xml version="1.0" encoding="UTF-8"?>
<svg width="40px" height="40px" viewBox="0 0 40 40" version="1.1" xmlns="http://www.w3.org/2000/svg" xmlns:xlink="http://www.w3.org/1999/xlink">
    <!-- Generator: Sketch 58 (84663) - https://sketch.com -->
    <title>twitter</title>
    <desc>Created with Sketch.</desc>
    <g id="Page-1" stroke="none" stroke-width="1" fill="none" fill-rule="evenodd">
        <g id="XLogistic" transform="translate(-415.000000, -3985.000000)">
            <g id="FOOTER" transform="translate(0.000000, 3704.000000)">
                <g id="social" transform="translate(369.000000, 281.000000)">
                    <g id="twitter" transform="translate(46.000000, 0.000000)">
                        <circle id="base" fill="#00A2F9" cx="20" cy="20" r="20"></circle>
                        <path d="M26.996587,16.21368 C27.7168696,15.7762619 28.2699239,15.0836209 28.5304674,14.2584062 C27.8563804,14.6632427 27.1098587,14.9574138 26.315663,15.1160153 C25.6794565,14.4289918 24.7727283,14 23.769913,14 C21.8437391,14 20.2821413,15.58227 20.2821413,17.5341733 C20.2821413,17.8111174 20.3128152,18.0809459 20.3723152,18.3395394 C17.4738152,18.1923602 14.9031196,16.7851697 13.1835326,14.6467646 C12.8832609,15.1688201 12.7110435,15.7758874 12.7110435,16.4235883 C12.7110435,17.6497071 13.3267391,18.7312682 14.2624783,19.3652997 C13.6911304,19.3469491 13.1530435,19.1883476 12.6827717,18.9235749 C12.6824022,18.9381805 12.6824022,18.952786 12.6824022,18.9677661 C12.6824022,20.6803627 13.8849674,22.1087125 15.4801957,22.4334056 C15.1878696,22.5142979 14.8796522,22.5575529 14.5612717,22.5575529 C14.3367609,22.5575529 14.1185326,22.5354573 13.9051087,22.4940748 C14.3489565,23.898082 15.6374457,24.9200974 17.1633804,24.9483723 C15.9695,25.8964235 14.4659239,26.4615467 12.8318913,26.4615467 C12.5504674,26.4615467 12.2729239,26.4446941 12,26.4115507 C13.5433043,27.4146537 15.376163,28 17.3465,28 C23.7615978,28 27.2698804,22.6141027 27.2698804,17.9435037 C27.2698804,17.790707 27.2665543,17.6380975 27.2597174,17.4862371 C27.9410109,16.9885242 28.5321304,16.3661022 29,15.6569831 C28.3741413,15.938234 27.7022717,16.1281064 26.996587,16.21368 Z" id="Twitter" fill="#FFFFFF"></path>
                    </g>
                </g>
            </g>
        </g>
    </g>
</svg>